# xmcd
#
# Track frame offsets:
#	150
#	16257
#	30526
#	44149
#	62466
#	77110
#	91323
#	106895
#	124272
#	140495
#
# Disc length: 2067 seconds
#
# Revision: 1
# Processed by: cddbd v1.4PL0 Copyright (c) Steve Scherf et al.
# Submitted via: audiograbber 1.82.01
#
DISCID=7f08110a
DTITLE=Trace Adkins - Dreamin' On
DYEAR=1996
DGENRE=Country
TTITLE0=There's A Girl In Texas
TTITLE1=I Left Something Turned On At Home
TTITLE2=Every Light In The House Is On
TTITLE3=No Thinkin' Thing, (This Ain't)
TTITLE4=Dreamin' Out Loud
TTITLE5=If I Fall (You're Goin' With Me)
TTITLE6=It Was You
TTITLE7=I Can Only Love You Like A Man
TTITLE8=634-5789
TTITLE9=A Bad Way Of Saying Goodbye
EXTD=
EXTT0=
EXTT1=
EXTT2=
EXTT3=
EXTT4=
EXTT5=
EXTT6=
EXTT7=
EXTT8=
EXTT9=
PLAYORDER=
